<svg xmlns="http://www.w3.org/2000/svg" viewBox="0 0 1200 720" role="img" aria-labelledby="title desc">
<title id="title">Sori signal path instrument</title><desc id="desc">A tactile diagram showing capture, text preview, intent review, and focused app insertion as separate steps.</desc>
<rect width="1200" height="720" fill="#171817"/><g fill="none" stroke="#59615b" stroke-width="2" opacity=".65"><path d="M70 120h1060M70 600h1060M70 120v480M1130 120v480"/><path d="M70 240h1060M70 360h1060M70 480h1060"/></g>
<g fill="#e8e4d8" font-family="monospace"><text x="70" y="74" font-size="22" letter-spacing="5">SORI / HOT PATH</text><text x="70" y="165" font-size="16" fill="#a6aaa0">01  CAPTURE</text><text x="355" y="165" font-size="16" fill="#a6aaa0">02  PREVIEW</text><text x="640" y="165" font-size="16" fill="#a6aaa0">03  REVIEW</text><text x="925" y="165" font-size="16" fill="#a6aaa0">04  PLACE</text></g>
<g stroke="#d4b36a" stroke-width="5" fill="none"><path d="M145 330c25-100 25 100 50 0s25-100 50 0 25 100 50 0"/><path d="M430 355h120"/><path d="M715 355h120"/><path d="M1000 355h80"/></g>
<g fill="#e8e4d8" font-family="Georgia,serif"><text x="140" y="430" font-size="34">speak</text><text x="420" y="430" font-size="34">edit</text><text x="705" y="430" font-size="34">approve</text><text x="955" y="430" font-size="34">insert</text></g>
<g fill="#a6aaa0" font-family="monospace" font-size="15"><text x="140" y="515">microphone boundary</text><text x="420" y="515">text stays visible</text><text x="705" y="515">side effects wait</text><text x="955" y="515">focused app target</text></g>
<circle cx="292" cy="355" r="9" fill="#d4b36a"/><circle cx="577" cy="355" r="9" fill="#d4b36a"/><circle cx="862" cy="355" r="9" fill="#d4b36a"/><text x="70" y="660" fill="#a6aaa0" font-family="monospace" font-size="15">CONCEPT DIRECTION / PHYSICAL VOICE PATH UNVERIFIED</text></svg>